<svg height="35" viewBox="0 0 35 35" width="35" xmlns="http://www.w3.org/2000/svg"><circle cx="17.5" cy="17.5" fill="#db2840" r="17.5"/><g fill="none" stroke="#fff" stroke-width="2"><circle cx="17.5" cy="17.5" r="13.5" stroke="none"/><circle cx="17.5" cy="17.5" fill="none" r="12.5"/></g><path d="m11.473 5.737h-.7v-.656a.683.683 0 0 0 -1.364 0v.655h-5.181v-.655a.683.683 0 0 0 -1.364 0v.655h-.7a2.073 2.073 0 0 0 -2.164 2.051v6.927a2.2 2.2 0 0 0 2.165 2.206h9.308a2.2 2.2 0 0 0 2.165-2.205v-6.928a2.072 2.072 0 0 0 -2.165-2.05zm-9.308 1.227h.7v.5a.683.683 0 0 0 1.364 0v-.5h5.181v.5a.683.683 0 0 0 1.364 0v-.5h.7a.778.778 0 0 1 .8.823v1.087h-10.91v-1.087a.778.778 0 0 1 .801-.823zm9.308 8.728h-9.308a.918.918 0 0 1 -.8-.978v-4.477h10.91v4.477a.918.918 0 0 1 -.802.979z" fill="#fff" transform="translate(11 6.568)"/></svg>