<svg viewBox="0 0 532.18 460.54" xmlns="http://www.w3.org/2000/svg"><path d="m470.5 359.5c-.72 1.68-1.34 3.41-2.17 5-4 8-10.53 12.14-19.39 12.48-4.9.18-9.81 0-14.64 0-5.37 23-23.46 31.44-37.36 31.38-15.52-.06-32.59-10.42-36.92-31.19h-188.02c-2 4.58-3.46 9.29-5.9 13.44-7.63 13-23.63 20-38.36 17.17-15.1-2.87-27.26-14.7-29.86-29.54-.5-2.84-1.81-4.07-4.17-5.09-6.71-2.87-13.35-5.94-20-8.85-8.08-3.52-12-9.62-12-18.43.07-15.43 0-30.87 0-46.3 0-15.21 8.61-26 23.58-28.65a87.63 87.63 0 0 0 46.5-23.64c17.34-16.65 38.46-24.13 62.32-24.24h38.16c.12-1.21.29-2.22.29-3.23 0-12.38 0-24.75.05-37.13 0-2.2-.44-3.48-2.69-4.54-8-3.76-13.06-10.13-14.32-18.88-1.09-7.62-1.48-15.26 2-22.66 2.93-6.24 5.21-12.79 7.77-19.2 3.17-7.93 5.89-9.82 14.39-9.82h142.9 20c7.51 0 10.6 2.13 13.36 9 3.17 7.89 7 15.6 9.24 23.75 3.8 14.08 1.53 28.85-10.88 36.62-1.2.74-2.07 2.95-2.09 4.5-.16 12.63-.08 25.27-.1 37.91 0 11.94-6 18-17.83 18q-38.71 0-77.44 0h-4.6c.46.73.58 1.13.85 1.31 15.14 10.14 30.23 20.33 45.45 30.35 10.47 6.9 22.59 9 34.61 11.3 12.52 2.41 25.07 4.72 37.53 7.44 20.63 4.48 33.67 17.09 39.15 37.49a10.14 10.14 0 0 0 .63 1.44zm-25.44-53.16c-4.4-2-8.63-4.7-13.24-5.79-13.05-3.07-26.25-5.53-39.42-8.11s-26.82-4.71-38.48-12.24q-23.44-15.2-46.52-30.88a80 80 0 0 0 -45.73-14.22q-34.13-.14-68.25 0c-20.52.11-38.51 6.87-53.63 21a151.21 151.21 0 0 1 -12.79 10.76c-11.89 8.83-25.57 13.34-40 16-7 1.28-11.68 5.33-12.93 12.36-.67 3.78-.07 7.84-.07 12.23 3.18 0 6.2-.07 9.23 0 6.67.18 10.24 3.75 10.41 10.49.11 4.65 0 9.31 0 14-.07 7.72-3.74 11.33-11.59 11.45-2.73 0-5.46 0-9.51 0 1.4 3.58 1.69 7.44 3.55 8.47 7 3.9 14.49 6.87 21.85 10.21 6.12-19.76 22.19-28.29 36.49-28.27a36.7 36.7 0 0 1 20.7 6.21c8.9 6 14.23 14.45 16.24 24.94h188.63c4.93-22.1 22.72-31.26 37.31-31.18s32.08 9.36 37 31.27c5.1 0 10.28.2 15.43-.06 4.23-.21 8.28-3.94 8.65-8.12s.08-8.66.08-13.28c-6 0-11.53.07-17.09 0-4.89-.07-9-2.27-9.72-6.17-2.4-12.03-2.21-25.17 13.4-31.07zm-45.17-125.53c-7.77-.29-14-3.78-19.14-9.09-14.23 12.12-23.83 12.1-40.21.08-5.3 5.63-11.76 8.93-19.66 9s-14.53-3.44-19.93-9.08c-10.28 10.67-26.4 13.43-39.4.81l-16.78 9.32v40.35c13.45 1.1 26.62 3 39.82 3.13 36.72.43 73.44.16 110.16.14 4.48 0 5.4-.92 5.42-5.37q0-18.16 0-36.32c0-.93-.17-1.78-.28-2.97zm11.73-42.56c-1.92-4.85-3.94-9.3-5.43-13.93-1.15-3.55-2.89-4.82-6.8-4.81q-78.61.24-157.23.11a13.38 13.38 0 0 0 -3.17.08 3.3 3.3 0 0 0 -2.13 1.39c-2.33 5.6-4.52 11.27-6.84 17.16zm-14 207.51a25.33 25.33 0 1 0 24.87 25.89c.51-13.78-10.83-25.57-24.84-25.89zm-263.22 50.64a25.33 25.33 0 1 0 -25.47-25.31 25.46 25.46 0 0 0 25.47 25.31zm92.78-245.83c-.76 7.08.79 12.87 7 16.42a13.06 13.06 0 0 0 15-.81c5.32-3.83 6.48-9.27 5.53-15.61zm40 0c-.87 6.85.61 12.53 6.5 16.16a13.09 13.09 0 0 0 15-.32c5.59-3.76 6.87-9.31 5.93-15.84zm67.37.09h-27.49c-.88 10.95 4.67 18.12 13.77 18.11s14.66-7.15 13.7-18.08zm52.39-.08c-.9 6.78.55 12.46 6.41 16.12a12.94 12.94 0 0 0 14.66 0c5.73-3.74 7.41-9.29 6.33-16.08zm-39.93 0c-.88 6.84.59 12.52 6.48 16.16a13.09 13.09 0 0 0 15-.32c5.59-3.76 6.86-9.32 5.95-15.84zm112.8 180.86c-2.08-4.65-3.05-9.24-5.83-12-1.35-1.35-6.71-.25-9.13 1.39-3.6 2.43-2.05 6.86-2 10.64zm-378.16-.22v-11.59h-7.65v11.61z"/><path d="m195.9 92c-2.11 0-4.08.09-6 0-5.83-.29-9.25-3.39-9.45-9.17-.24-7.17-.24-14.37 0-21.55.21-5.79 3.63-8.86 9.47-9.14h2.39q130.11 0 260.23 0a18.52 18.52 0 0 1 7.31 1.36c3.38 1.48 4.49 4.69 4.49 8.26 0 6.78.1 13.57 0 20.35-.11 6.4-3.53 9.67-10 9.86-1.72.06-3.44 0-5.79 0v5.23q0 84.41 0 168.82a38.67 38.67 0 0 1 -.25 5.17 5.37 5.37 0 0 1 -5.75 5 5.27 5.27 0 0 1 -5.61-4.66 34.32 34.32 0 0 1 -.35-5.56q0-84.21 0-168.43v-5.32h-228.47v104 3.19c-.11 5.19-2.1 7.74-6 7.71s-5.94-2.58-6-7.8q-.06-34.73 0-69.45 0-17.16 0-34.32c.01-1.06-.12-2.09-.22-3.55zm256.26-27.6h-259.55v15.37h259.55z"/><path d="m290.79 309.76h-53.88c-8.66 0-11.12-2.47-11.13-11.15q0-22.35 0-44.7c0-8 2.56-10.58 10.47-10.56 10 0 19.95.1 29.92.31 13.7.29 26 5 37.27 12.48 15 9.89 29.86 19.92 44.84 29.81 4.82 3.18 8 7.32 8.7 13.14.66 5.43-2.21 9.37-7.56 10.32a28 28 0 0 1 -4.75.34q-26.94.03-53.88.01zm52.7-12.25c-1.12-.93-1.65-1.46-2.27-1.87-14-9.35-28.17-18.58-42.12-28.07-10.68-7.27-22.13-12-35.21-12.13-8.58-.07-17.17 0-25.9 0v42.09z"/><path d="m173 309.34c-11.7 0-23.42.47-35.08-.14-10-.52-18.25-8.4-20.51-17.95a10.07 10.07 0 0 1 3.7-11c9.47-7.5 18.92-15 28.47-22.39 12.88-10 27.61-14.47 43.8-14.53 4.12 0 8.25-.14 12.37 0 6.16.28 9.23 3.43 9.26 9.61q.12 23.34 0 46.68c0 6.87-3.31 10-10.5 10.07-10.51.07-21 0-31.52 0zm29.84-53.78c-15.94-1.17-31.08.65-44 10.49-9.89 7.51-19.23 15.74-29 23.78 2 5.3 5.84 7.89 13.09 7.92 19.14.07 38.27 0 57.41 0 .77 0 1.54-.12 2.51-.21z"/><path d="m240.84 335c-2.78 0-5.58.2-8.34-.06-3.25-.3-5-2.47-5-5.65 0-3.37 1.83-5.66 5.28-5.81 5.3-.21 10.61-.23 15.91 0 3.38.14 5.36 2.3 5.4 5.71s-1.94 5.49-5.3 5.82c-2.63.25-5.3.05-7.95.05z"/><path d="m377.61 371.23a19.5 19.5 0 1 1 19.62 19.39 19.57 19.57 0 0 1 -19.62-19.39zm26.95-.19a7.47 7.47 0 1 0 -14.93.1 7.47 7.47 0 1 0 14.93-.1z"/><path d="m114.92 371.23a19.5 19.5 0 1 1 19.63 19.39 19.57 19.57 0 0 1 -19.63-19.39zm26.88.44a7.42 7.42 0 1 0 -7.79 6.94 7.53 7.53 0 0 0 7.79-6.94z"/></svg>