<svg height="20.421" viewBox="0 0 29.031 20.421" width="29.031" xmlns="http://www.w3.org/2000/svg"><path d="m28.741 6.778a6.248 6.248 0 0 0 -1.156-2.878 4.156 4.156 0 0 0 -2.909-1.23c-4.059-.3-10.156-.3-10.156-.3h-.011s-6.1 0-10.156.3a4.162 4.162 0 0 0 -2.909 1.23 6.217 6.217 0 0 0 -1.15 2.88 44.164 44.164 0 0 0 -.294 4.699v2.2a44.3 44.3 0 0 0 .289 4.7 6.293 6.293 0 0 0 1.15 2.882 4.944 4.944 0 0 0 3.2 1.241c2.324.221 9.873.289 9.873.289s6.1-.011 10.162-.3a4.154 4.154 0 0 0 2.909-1.23 6.252 6.252 0 0 0 1.156-2.882 44.164 44.164 0 0 0 .289-4.7v-2.2a45.162 45.162 0 0 0 -.294-4.7zm-17.228 9.572v-8.16l7.843 4.094z" fill="#8cbfdb" transform="translate(-.005 -2.372)"/></svg>