<svg viewBox="0 0 30 30" width="30" xmlns="http://www.w3.org/2000/svg"><g fill="#0f2d49"><path d="m16.5 2a7.5 7.5 0 1 0 7.5 7.5 7.5 7.5 0 0 0 -7.5-7.5zm0 12.857a5.357 5.357 0 1 1 5.357-5.357 5.357 5.357 0 0 1 -5.357 5.357z" transform="translate(-1.5 -2)"/><path d="m22.539 18h-11.078a9.471 9.471 0 0 0 -9.461 9.461 3.4 3.4 0 0 0 3.4 3.4h23.2a3.4 3.4 0 0 0 3.4-3.4 9.471 9.471 0 0 0 -9.461-9.461zm6.061 10.714h-23.2a1.254 1.254 0 0 1 -1.254-1.254 7.318 7.318 0 0 1 7.318-7.318h11.075a7.318 7.318 0 0 1 7.318 7.318 1.254 1.254 0 0 1 -1.257 1.254z" transform="translate(-2 -.857)"/></g></svg>