<svg viewBox="0 0 35.667 30.211" width="35.667" xmlns="http://www.w3.org/2000/svg"><g fill="#0f2d49" transform="translate(-8 -17)"><path d="m8.9 18.8h6.45l3.021 17.27a.917.917 0 0 0 .9.767h20.292a1.5 1.5 0 0 0 1.353-1.437l2.705-11.543a1.953 1.953 0 0 0 .045-.225 1.253 1.253 0 0 0 -1.353-1.263h-20.245a.9.9 0 1 0 0 1.8h19.615l-2.525 10.822h-19.119l-3.021-17.224a.917.917 0 0 0 -.9-.767h-7.218a.9.9 0 1 0 0 1.8z"/><path d="m49.776 74.665a3.782 3.782 0 0 0 3.743-3.833 3.854 3.854 0 0 0 -3.338-3.832h-14.338a3.834 3.834 0 1 0 3.743 3.833 3.821 3.821 0 0 0 -.586-2.033h7.665a3.821 3.821 0 0 0 -.586 2.029 3.774 3.774 0 0 0 3.697 3.836zm0-5.862a2 2 0 0 1 1.939 2.029 1.941 1.941 0 1 1 -3.878 0 2 2 0 0 1 1.939-2.032zm-13.976 4.059a2.031 2.031 0 1 1 1.939-2.029 1.974 1.974 0 0 1 -1.939 2.029z" transform="translate(-13.233 -27.455)"/></g></svg>