<svg height="13.926" viewBox="0 0 13.667 13.926" width="13.667" xmlns="http://www.w3.org/2000/svg"><g fill="#0f2d49"><path d="m361.145 140.961h7.173c.329 0 .66.006.989 0h.014a.468.468 0 1 0 0-.936h-7.173c-.329 0-.66-.006-.989 0h-.014a.468.468 0 1 0 0 .936z" transform="translate(-356.121 -138.861)"/><path d="m69.145 141.136h1.934a.468.468 0 1 0 0-.936h-1.934a.468.468 0 1 0 0 .936z" transform="translate(-68.676 -139.036)"/><circle cx="3.713" cy="1.629" r="1.315"/><path d="m204.167 68.227c-.033 0-.066 0-.1 0-.009 0-.05 0-.053 0s.08.014.019 0a1.5 1.5 0 0 1 -.184-.044c-.017-.006-.087-.02-.1-.036 0 0 .07.033.017.006l-.037-.019a1.818 1.818 0 0 1 -.167-.1l-.008-.006c-.027-.02-.022-.016.014.012a.175.175 0 0 1 -.031-.027c-.02-.017-.041-.036-.061-.055s-.044-.044-.064-.066-.023-.025-.034-.039-.037-.058-.014-.016-.008-.011-.012-.017-.016-.022-.023-.034-.03-.047-.042-.07-.031-.061-.047-.092-.009.006.006.017c-.011-.008-.019-.047-.022-.058a1.338 1.338 0 0 1 -.048-.172.4.4 0 0 1 -.008-.042c-.009-.058-.016 0 0 .009-.012-.011-.008-.089-.008-.108 0-.062 0-.123.006-.186 0-.047-.016.08 0 .009 0-.014 0-.028.008-.042.006-.034.016-.069.025-.1s.016-.053.025-.08l.019-.048c.014-.042-.034.07 0 .008s.056-.109.089-.162l.023-.034c0-.006.036-.062.012-.017s.008-.009.014-.016l.027-.031a1.267 1.267 0 0 1 .131-.128c.008-.006.059-.037.016-.014s0 0 .009-.006l.076-.05c.023-.014.047-.028.072-.041l.047-.023a.223.223 0 0 1 .028-.012l-.027.011c.056-.019.111-.041.168-.055.031-.008.062-.014.094-.02.014 0 .058 0 .011 0s.022 0 .033 0a1.475 1.475 0 0 1 .186 0h.053c.044 0-.062-.011-.019 0s.076.014.114.023c.055.014.106.031.159.05s-.045-.027-.008 0a.427.427 0 0 0 .047.022c.031.016.061.033.09.05s.047.03.069.045a.213.213 0 0 1 .033.023c0-.016-.05-.042-.006 0a1.41 1.41 0 0 1 .139.134c.012.014.051.045.053.062l-.023-.031.019.025c.008.011.016.022.023.034a1.814 1.814 0 0 1 .1.17c.027.053 0-.017-.006-.017a.149.149 0 0 1 .019.048c.011.03.02.059.03.089s.014.055.02.081a1.189 1.189 0 0 1 .014.084.365.365 0 0 0 -.006-.041c-.008.061.009.133.008.195 0 .03 0 .058-.006.087 0 .072.011-.055 0-.008l-.009.053a1.412 1.412 0 0 1 -.061.211c0 .014-.028.045 0 .011s-.009.017-.014.028a1.02 1.02 0 0 1 -.05.09c-.019.033-.041.062-.062.094s.011 0 .012-.014c0 .012-.033.039-.039.047a1.4 1.4 0 0 1 -.145.144c-.006 0-.027.025-.031.027.034-.025.041-.031.022-.017l-.025.017c-.028.019-.056.037-.086.055s-.059.033-.09.048a.168.168 0 0 1 -.037.017c.044-.017.048-.02.017-.008l-.019.008a1.288 1.288 0 0 1 -.2.058l-.053.009h.03a.232.232 0 0 1 -.033 0 .683.683 0 0 1 -.115.008.312.312 0 0 0 0 .624 1.653 1.653 0 0 0 1.533-1.086 1.629 1.629 0 0 0 -.482-1.781 1.689 1.689 0 0 0 -.944-.384 1.619 1.619 0 0 0 -.948.228 1.627 1.627 0 0 0 .839 3.022.311.311 0 0 0 0-.622z" transform="translate(-200.455 -65.596)"/><path d="m751.145 483.136h2.09a.468.468 0 1 0 0-.936h-2.09a.468.468 0 0 0 0 .936z" transform="translate(-740.039 -475.701)"/><path d="m69.145 482.961h7.031c.324 0 .649.006.973 0h.014a.468.468 0 1 0 0-.936h-7.031c-.324 0-.649-.006-.973 0h-.014a.468.468 0 1 0 0 .936z" transform="translate(-68.676 -475.526)"/><circle cx="9.797" cy="6.964" r="1.315"/><path d="m594.167 410.227c-.033 0-.065 0-.1 0-.009 0-.05 0-.053 0s.08.014.019 0a1.492 1.492 0 0 1 -.184-.044c-.017-.006-.087-.02-.1-.036 0 0 .07.033.017.006l-.037-.019a1.809 1.809 0 0 1 -.167-.1l-.008-.006c-.027-.02-.022-.016.014.012 0 0-.03-.025-.031-.027-.02-.017-.041-.036-.061-.055s-.044-.044-.064-.066-.023-.025-.034-.039-.037-.058-.014-.016-.008-.011-.012-.017-.016-.022-.023-.034-.03-.047-.042-.07-.031-.061-.047-.092-.009.006.006.017c-.011-.008-.019-.047-.022-.058a1.346 1.346 0 0 1 -.048-.172.392.392 0 0 1 -.008-.042c-.009-.058-.016 0 0 .009-.013-.011-.008-.089-.008-.108 0-.062 0-.123.006-.186 0-.047-.016.08 0 .009 0-.014 0-.028.008-.042.006-.034.016-.069.025-.1s.016-.053.025-.08l.019-.048c.014-.042-.034.07 0 .008s.056-.109.089-.162l.023-.034c0-.006.036-.062.012-.017s.008-.009.014-.016l.026-.031a1.269 1.269 0 0 1 .131-.128c.008-.006.059-.037.016-.014s0 0 .009-.006l.076-.05c.023-.014.047-.028.072-.041l.047-.023a.223.223 0 0 1 .028-.012l-.027.011c.056-.019.111-.041.169-.055.031-.008.062-.014.094-.02.014 0 .058 0 .011 0s.022 0 .033 0a1.478 1.478 0 0 1 .186 0h.053c.044 0-.062-.011-.019 0s.076.014.114.023c.055.014.106.031.159.05s-.045-.027-.008 0a.422.422 0 0 0 .047.022c.031.016.061.033.09.05s.047.03.069.045a.212.212 0 0 1 .033.023c0-.016-.05-.042-.006 0a1.417 1.417 0 0 1 .139.134c.012.014.051.045.053.062l-.023-.031.019.025c.008.011.016.022.023.034a1.831 1.831 0 0 1 .1.17c.026.053 0-.017-.006-.017a.148.148 0 0 1 .019.048c.011.03.02.059.03.089s.014.055.02.081a.392.392 0 0 1 .008.042.385.385 0 0 1 .006.042.358.358 0 0 0 -.006-.041c-.008.061.009.133.008.2 0 .03 0 .058-.006.087 0 .072.011-.055 0-.008 0 .017-.006.034-.009.053a1.411 1.411 0 0 1 -.061.211c0 .014-.028.045 0 .011s-.009.017-.014.028a1.008 1.008 0 0 1 -.05.09c-.019.033-.041.062-.062.094s.011 0 .012-.014c0 .012-.033.039-.039.047a1.406 1.406 0 0 1 -.145.144c-.006 0-.027.025-.031.027.034-.025.041-.031.022-.017l-.025.017c-.028.019-.056.037-.086.055s-.059.033-.091.048a.167.167 0 0 1 -.037.017c.044-.017.048-.02.017-.008l-.019.008a1.288 1.288 0 0 1 -.2.058l-.053.009h.03a.228.228 0 0 1 -.033 0 .681.681 0 0 1 -.115.008.312.312 0 0 0 0 .624 1.653 1.653 0 0 0 1.533-1.086 1.629 1.629 0 0 0 -.482-1.781 1.689 1.689 0 0 0 -.944-.384 1.619 1.619 0 0 0 -.948.228 1.627 1.627 0 0 0 .839 3.022.311.311 0 0 0 0-.622z" transform="translate(-584.371 -402.261)"/><path d="m521.145 825h4.975.693.011a.468.468 0 1 0 0-.936h-4.975c-.231 0-.462 0-.693 0h-.011a.468.468 0 1 0 0 .936z" transform="translate(-513.626 -812.235)"/><path d="m69.145 825.136h4.43a.468.468 0 0 0 0-.936h-4.43a.468.468 0 0 0 0 .936z" transform="translate(-68.676 -812.366)"/><circle cx="6.209" cy="12.299" r="1.315"/><path d="m364.167 752.227c-.033 0-.066 0-.1 0-.009 0-.05 0-.053 0s.08.014.019 0a1.487 1.487 0 0 1 -.184-.044c-.017-.006-.087-.02-.1-.036 0 0 .07.033.017.006l-.037-.019a1.8 1.8 0 0 1 -.167-.1.032.032 0 0 1 -.008-.006c-.027-.02-.022-.016.014.013 0 0-.03-.025-.031-.027-.02-.017-.041-.036-.061-.055s-.044-.044-.064-.065-.023-.025-.034-.039-.037-.058-.014-.016-.008-.011-.013-.017-.016-.022-.023-.034a.8.8 0 0 1 -.042-.07c-.017-.03-.031-.061-.047-.092s-.009.006.006.017c-.011-.008-.019-.047-.022-.058a1.342 1.342 0 0 1 -.048-.172.4.4 0 0 1 -.008-.042c-.009-.058-.016 0 0 .009-.012-.011-.008-.089-.008-.108 0-.062 0-.123.006-.186 0-.047-.016.079 0 .009 0-.014 0-.028.008-.042.006-.034.016-.069.025-.1s.016-.053.025-.08l.019-.048c.014-.042-.034.07 0 .008s.056-.109.089-.162l.023-.034c0-.006.036-.062.012-.017s.008-.009.014-.016l.027-.031a1.262 1.262 0 0 1 .131-.128c.008-.006.059-.037.016-.014s0 0 .009-.006l.076-.05c.023-.014.047-.028.072-.041l.047-.023a.219.219 0 0 1 .028-.012l-.026.011c.056-.019.111-.041.168-.055.031-.008.062-.014.094-.02.014 0 .058 0 .011 0s.022 0 .033 0a1.5 1.5 0 0 1 .186 0h.053c.044 0-.062-.011-.019 0s.076.014.114.023c.055.014.106.031.159.05s-.045-.027-.008 0a.424.424 0 0 0 .047.022c.031.016.061.033.091.05s.047.03.069.045a.213.213 0 0 1 .033.023c0-.016-.05-.042-.006 0a1.413 1.413 0 0 1 .139.134c.012.014.051.045.053.062l-.023-.031.019.025.023.034a1.815 1.815 0 0 1 .1.17c.027.053 0-.017-.006-.017a.148.148 0 0 1 .019.048c.011.03.02.059.03.089s.014.055.02.081a1.221 1.221 0 0 1 .014.084.361.361 0 0 0 -.006-.041c-.008.061.009.133.008.2 0 .03 0 .058-.006.087 0 .072.011-.055 0-.008l-.009.053a1.41 1.41 0 0 1 -.061.211c0 .014-.028.045 0 .011s-.009.017-.014.028a1.029 1.029 0 0 1 -.05.09c-.019.033-.041.062-.062.094s.011 0 .012-.014c0 .012-.033.039-.039.047a1.409 1.409 0 0 1 -.145.144c-.006 0-.027.025-.031.026.034-.025.041-.031.022-.017l-.025.017c-.028.019-.056.037-.086.055s-.059.033-.091.048a.166.166 0 0 1 -.037.017c.044-.017.048-.02.017-.008l-.019.008a1.287 1.287 0 0 1 -.2.058l-.053.009h.03a.229.229 0 0 1 -.033 0 .684.684 0 0 1 -.115.008.312.312 0 1 0 0 .624 1.653 1.653 0 0 0 1.533-1.086 1.629 1.629 0 0 0 -.482-1.781 1.689 1.689 0 0 0 -.944-.384 1.618 1.618 0 0 0 -.948.228 1.627 1.627 0 0 0 .839 3.022.311.311 0 1 0 0-.622z" transform="translate(-357.959 -738.926)"/></g></svg>