<svg height="29.033" viewBox="0 0 29.033 29.033" width="29.033" xmlns="http://www.w3.org/2000/svg"><path d="m26.311 0h-23.589a2.73 2.73 0 0 0 -2.722 2.722v23.589a2.73 2.73 0 0 0 2.722 2.722h23.589a2.73 2.73 0 0 0 2.722-2.722v-23.589a2.73 2.73 0 0 0 -2.722-2.722zm-6.351 4.536a.91.91 0 0 1 .907-.907h3.633a.91.91 0 0 1 .907.907v3.63a.91.91 0 0 1 -.907.907h-3.632a.91.91 0 0 1 -.907-.907zm-5.443 4.537a5.444 5.444 0 1 1 -5.444 5.444 5.446 5.446 0 0 1 5.444-5.444zm10.883 15.427a.91.91 0 0 1 -.907.907h-19.957a.91.91 0 0 1 -.907-.907v-11.8h2a9.073 9.073 0 1 0 17.783 0h2z" fill="#8cbfdb"/></svg>