<svg height="23.589" viewBox="0 0 25.404 23.589" width="25.404" xmlns="http://www.w3.org/2000/svg"><g fill="#8cbfdb"><path d="m6 6h5.021v2.573h.073a5.565 5.565 0 0 1 4.957-2.573c5.3 0 6.28 3.3 6.28 7.59v8.741h-5.231v-7.748c0-1.847-.038-4.226-2.722-4.226-2.725 0-3.143 2.012-3.143 4.092v7.882h-5.235z" transform="translate(3.073 1.258)"/><path d="m1 6h5.444v16.331h-5.444z" transform="translate(-1 1.258)"/><path d="m6.444 4.722a2.722 2.722 0 1 1 -2.722-2.722 2.723 2.723 0 0 1 2.722 2.722z" transform="translate(-1 -2)"/></g></svg>