<svg xmlns="http://www.w3.org/2000/svg" width="29" height="29" viewBox="0 0 29 29"><path id="pinterest" d="M14.5,0A14.422,14.422,0,0,1,29,14.5,14.664,14.664,0,0,1,14.5,29a15.136,15.136,0,0,1-4.1-.6q.407-.657.814-1.456a17.366,17.366,0,0,0,1.128-3.6q.188-.767.532-2.02a3.155,3.155,0,0,0,1.362,1.253A6.247,6.247,0,0,0,19.6,22.36a8.852,8.852,0,0,0,4.071-5.23c1.295-4.921-.375-9.653-4.839-11.557-5.382-1.622-11.389.4-13.482,5.214C4.442,14,4.5,18.133,7.673,19.478a.57.57,0,0,0,.454,0,3.651,3.651,0,0,0,.579-1.958,1.181,1.181,0,0,0-.219-.392c-1.756-2.377-.686-5.915.955-7.688,2.79-2.4,7.133-2.786,9.692-.5,2.27,2.649,1.754,6.77.3,9.4A4.108,4.108,0,0,1,16.1,20.606a2.261,2.261,0,0,1-2.286-2.787c.333-1.715,1.257-3.535,1.284-5.136-.074-1.332-.741-2.177-1.973-2.192-1.967.248-2.761,2.087-2.787,3.758a5.792,5.792,0,0,0,.47,2.286q-.626,2.536-.971,4.087a45.318,45.318,0,0,0-1.143,5.528q-.047.877-.015,1.629A14.635,14.635,0,0,1,0,14.5,14.579,14.579,0,0,1,14.5,0Z" fill="#6ec5f5"/></svg>