<svg height="15.166" viewBox="0 0 22.751 15.166" width="22.751" xmlns="http://www.w3.org/2000/svg"><g fill="#0f2d49" transform="translate(-1.123 -6.75)"><path d="m19.567 16.533a3.033 3.033 0 1 1 -3.034-3.033 3.033 3.033 0 0 1 3.034 3.033z" transform="translate(-4.034 -2.2)"/><path d="m23.629 13.509a16.065 16.065 0 0 0 -4.7-4.765 11.906 11.906 0 0 0 -6.446-1.994 11.354 11.354 0 0 0 -5.89 1.711 17.268 17.268 0 0 0 -5.2 5.027 1.513 1.513 0 0 0 -.03 1.684 15.836 15.836 0 0 0 4.658 4.77 11.742 11.742 0 0 0 6.461 1.973 11.962 11.962 0 0 0 6.455-1.977 15.839 15.839 0 0 0 4.7-4.783 1.526 1.526 0 0 0 0-1.647zm-11.129 5.374a4.55 4.55 0 1 1 4.55-4.55 4.55 4.55 0 0 1 -4.55 4.55z"/></g></svg>