<svg viewBox="0 0 532.18 460.54" xmlns="http://www.w3.org/2000/svg"><path d="m61.67 283c2-3.57 5.11-4.61 9-4.59 18.76.07 37.52 0 56.28 0a17.79 17.79 0 0 1 3.18.24c3.61.66 5.9 3.31 5.73 6.53a6.2 6.2 0 0 1 -6.34 5.94c-7.58.2-15.16.11-22.75.13h-4.85v14.59h6c9.18 0 18.36-.07 27.54 0 2.4 0 3.73-.53 4.84-2.93 7.29-15.74 19.86-24.34 37.08-24.29s29.68 8.64 37.13 24.36a5.53 5.53 0 0 0 4 2.7q63.67.21 127.34.1c.64 0 1.29-.09 2.33-.18.07-1.51.19-2.92.19-4.32 0-13.7 0-27.41.06-41.11 0-2 0-4.49 1.13-5.68a9.79 9.79 0 0 1 6.29-3c3 0 5.06 2.35 5.21 5.53.2 4.38.11 8.78.11 13.17 0 10.64 0 21.29.07 31.93 0 1.2.87 2.39 1.34 3.58 1-.9 2.33-1.61 2.85-2.72 10-21.31 32.82-30.2 54.08-20.75a37.91 37.91 0 0 1 19.94 20.28c1 2.39 2.24 3.5 5 3.33 4.22-.27 8.47-.07 13-.07v-28.33c-2.84 0-5.72.15-8.58 0a19.53 19.53 0 0 1 -18.27-18.33c-.26-4.64-.19-9.31-.13-14 .07-5.21 2.37-7.51 7.61-7.59 5.95-.09 11.91 0 17.92 0-1.42-8.1-9.77-14.35-19.32-14.42-16.23-.11-32.46 0-48.7 0h-26.8c0 2.54.1 4.76 0 7-.2 3.91-2.65 6.48-6.12 6.6-3.3.11-6.09-2.5-6.54-6.25a33.13 33.13 0 0 1 -.09-4v-112.45h-246.7v112 3.6c-.21 4.19-2.6 6.89-6.17 7s-6.19-2.6-6.56-6.6c-.1-1.06 0-2.13 0-3.19q0-54.69 0-109.38c0-11.6 4.86-16.42 16.53-16.42h239.47c11.45 0 16.2 4.77 16.22 16.24v10.75c1.6.08 3 .22 4.39.22 14 0 27.94-.05 41.91 0 14.41.08 24.91 7.71 27.91 20.83a44.63 44.63 0 0 1 .56 13.85c-.19 2.1-2.49 4-4.32 6.71 3.05 12.23 6.3 25.5 9.76 38.72a5 5 0 0 0 3.13 2.79c16 4.52 25.82 16.94 25.92 33.64.13 21.82 0 43.64 0 65.46 0 6.08-2.28 8.33-8.5 8.4s-12.19 0-18.63 0c-.64 13.79-6 24.93-17 33a39.36 39.36 0 0 1 -25.35 7.93c-17.4-.6-37.69-14.4-39.21-40.61h-143.79c-.52 13.82-6.18 25-17.32 33.06a39.12 39.12 0 0 1 -25.1 7.55c-16.71-.66-37.27-13.52-39.16-40.88h-15.8c-5.86 0-11.71.14-17.56-.05-8.84-.28-13.94-5.62-14.08-14.48-.07-4.11 0-8.22 0-12.87-6.25 0-12.2-.13-18.15.05-3.89.11-7-.87-9.11-4.35zm366.62-72.91c-.24-1.26-.38-2.29-.63-3.3-2.84-11.47-5.81-22.91-8.46-34.42-.76-3.29-2.27-4-5.44-4-16 .16-31.92.07-47.88.07h-4.35v41.67zm-251.87 81.35c-15.58.89-27.66 13.73-26.81 28.49.89 15.47 13.9 27.65 28.6 26.8 15.53-.89 27.56-13.77 26.7-28.59-.91-15.61-13.64-27.55-28.49-26.7zm226.05 55.33c15 .15 27.71-12.45 27.89-27.58s-12.36-27.65-27.59-27.82c-15-.16-27.68 12.31-27.89 27.52-.2 14.91 12.48 27.73 27.59 27.88zm-41.06-191.48h61.75c.23-8.4-5.75-14.15-14.91-14.22-14.74-.12-29.49 0-44.23 0a17.48 17.48 0 0 0 -2.61.39zm96 109.26v-14h-13.91c-1.25 12.45 1.24 14.97 13.88 14z"/><path d="m218.25 221.27 27.75-27.75q13.54-13.56 27.1-27.09a21.18 21.18 0 0 1 3.65-3.05 5.64 5.64 0 0 1 7.32.94 5.74 5.74 0 0 1 1.08 7.63 17.79 17.79 0 0 1 -2.81 3.33q-28.77 28.82-57.58 57.57c-5.15 5.15-7.81 5.13-13-.09q-15.1-15.07-30.18-30.2a16.24 16.24 0 0 1 -2.8-3.36 5.85 5.85 0 0 1 .87-7.35 5.77 5.77 0 0 1 7.61-1.14 19.69 19.69 0 0 1 3.64 3.08c8.96 9.01 17.96 18.06 27.35 27.48z"/><path d="m279.59 291.27q-22.12 0-44.24 0a26.94 26.94 0 0 1 -4.76-.29 6.18 6.18 0 0 1 -.31-12 22 22 0 0 1 4.73-.46q44.64 0 89.28 0h.8c5.66.08 8.81 2.41 8.78 6.48s-3.07 6.31-8.85 6.32q-22.71-.01-45.43-.05z"/><path d="m122.73 263.92c-13.43 0-26.87 0-40.3 0-4.21 0-6.91-2.49-7.07-6.06s2.71-6.35 7-6.68c.93-.07 1.86 0 2.79 0h33.52q20.94 0 41.89 0a21.78 21.78 0 0 1 4 .23 6.17 6.17 0 0 1 5.46 6.38c.11 3.27-2.55 5.86-6.15 6.09-2.65.18-5.32.08-8 .08z"/><path d="m177.22 305.93a13 13 0 0 1 13.2 13 13.15 13.15 0 0 1 -13 13.29 13.41 13.41 0 0 1 -13.3-13.14 13.17 13.17 0 0 1 13.1-13.15z"/><path d="m389.5 318.55a13.15 13.15 0 0 1 26.28 1 13.15 13.15 0 1 1 -26.28-1z"/></svg>