<svg height="23.591" viewBox="0 0 29.04 23.591" width="29.04" xmlns="http://www.w3.org/2000/svg"><path d="m29.036 4.79a11.724 11.724 0 0 1 -3.419.936 5.991 5.991 0 0 0 2.62-3.3 11.989 11.989 0 0 1 -3.782 1.446 5.965 5.965 0 0 0 -10.149 5.438 16.914 16.914 0 0 1 -12.278-6.226 5.963 5.963 0 0 0 1.842 7.95 5.99 5.99 0 0 1 -2.7-.742v.074a5.956 5.956 0 0 0 4.78 5.841 5.972 5.972 0 0 1 -1.571.21 6.218 6.218 0 0 1 -1.123-.107 5.975 5.975 0 0 0 5.562 4.14 11.95 11.95 0 0 1 -7.399 2.55 11.907 11.907 0 0 1 -1.419-.084 16.851 16.851 0 0 0 9.135 2.677c10.955 0 16.95-9.078 16.95-16.95 0-.261-.005-.515-.016-.771a11.957 11.957 0 0 0 2.97-3.079z" fill="#8cbfdb" transform="translate(.004 -2.001)"/></svg>