<svg height="23" viewBox="0 0 22.766 23" width="22.766" xmlns="http://www.w3.org/2000/svg"><g fill="#db2840"><path d="m44.66 274.251c-1.863-1.863-4.038-3.02-5.675-3.02a2.3 2.3 0 0 0 -1.676.618 2.115 2.115 0 0 0 -.581 1.187l-4.508 13.064a.464.464 0 0 0 .59.59l13.044-4.506a2.138 2.138 0 0 0 1.207-.583c.707-.707.812-1.892.294-3.335a11.411 11.411 0 0 0 -2.695-4.015zm-7.646.933a12.516 12.516 0 0 0 6.77 6.734l-3.894 1.345a12.518 12.518 0 0 1 -4.244-4.246l1.345-3.9zm.4 8.933a12.988 12.988 0 0 1 -2.625-2.625l.466-1.352a13.726 13.726 0 0 0 3.51 3.511zm-2.986-1.58c.286.349.595.69.923 1.019s.668.636 1.017.922l-2.959 1.022zm11.972-1.591a1.223 1.223 0 0 1 -.718.326h-.012a2.189 2.189 0 0 1 -.289.019c-1.38 0-3.35-1.079-5.019-2.748a10.476 10.476 0 0 1 -2.479-3.673c-.384-1.07-.356-1.932.077-2.365a1.388 1.388 0 0 1 1.019-.346c1.379 0 3.349 1.079 5.019 2.748a10.475 10.475 0 0 1 2.479 3.673c.389 1.071.361 1.933-.077 2.366z" transform="translate(-32.194 -263.716)"/><path d="m316.892 463.76h-.006a6.83 6.83 0 0 1 -3.727-2.213.464.464 0 0 0 -.656.657c1.463 1.463 3.266 2.485 4.384 2.485h.014a.464.464 0 0 0 -.009-.928z" transform="translate(-303.695 -448.01)"/><path d="m547.653 306.112a.464.464 0 0 0 -.657 0 3 3 0 0 1 -2.736.911 3.808 3.808 0 0 0 -3.362 1.141.464.464 0 1 0 .656.657 2.923 2.923 0 0 1 2.657-.87 3.892 3.892 0 0 0 3.441-1.182.464.464 0 0 0 .001-.657z" transform="translate(-525.023 -297.386)"/><path d="m293.448 35.107a.464.464 0 0 0 .464-.464 3 3 0 0 1 1.291-2.579 3.808 3.808 0 0 0 1.57-3.184.464.464 0 0 0 -.928 0 2.923 2.923 0 0 1 -1.264 2.494 3.892 3.892 0 0 0 -1.6 3.269.464.464 0 0 0 .467.464z" transform="translate(-284.912 -28.416)"/><path d="m561.809 140.894a1.631 1.631 0 1 0 -1.154-.478 1.621 1.621 0 0 0 1.154.478zm-.5-2.128a.7.7 0 1 1 .5 1.2.7.7 0 0 1 -.5-1.2z" transform="translate(-543.837 -134.251)"/><path d="m222.545 33.566a1.631 1.631 0 1 0 -1.154-.478 1.621 1.621 0 0 0 1.154.478zm-.5-2.128a.7.7 0 1 1 0 .994.7.7 0 0 1 .003-.995z" transform="translate(-215.073 -30.245)"/><path d="m380.762 201.119a.464.464 0 0 0 -.09.736l2.3 2.3a.464.464 0 0 0 .784-.21l.842-3.144a.461.461 0 0 0 .018-.128.465.465 0 0 0 -.464-.464.462.462 0 0 0 -.127.018l-3.144.842a.462.462 0 0 0 -.119.05zm2.735.212-.43 1.606-1.176-1.176z" transform="translate(-369.749 -194.893)"/><path d="m617.352 424.316h-1.984a.464.464 0 0 0 -.464.464v1.984a.464.464 0 0 0 .464.464h1.984a.464.464 0 0 0 .464-.464v-1.984a.464.464 0 0 0 -.464-.464zm-.464 1.984h-1.056v-1.056h1.056z" transform="translate(-596.869 -412.063)"/></g></svg>